<svg xmlns="http://www.w3.org/2000/svg" viewBox="0 0 464.55 283"><defs><style>.cls-1{fill:#b3b3b3;}</style></defs><title>logo</title><g id="Layer_2" data-name="Layer 2"><g id="logo"><g id="mad"><path d="M28.2,106.6,45,85.35H56.4v57.3H43.34V106.88l-14.16,18h-2l-14.16-18v35.77H0V85.35H11.34Z"/><path d="M98.67,85.35,122,142.65h-14l-4.32-11.32H80.12L76.2,142.65H62.36l21.17-57.3Zm1.1,36L91.28,99l-7.7,22.27Z"/><path d="M127.92,85.35H151q13.4,0,21.18,8T180,114.1q0,13.33-7.9,20.94t-22.53,7.61H127.92ZM141,95.85v36.3h8.52q8.29,0,12.68-5T166.57,114q0-8.45-4.45-13.31t-12.78-4.86Z"/><path d="M311.33,180.51A22.72,22.72,0,0,1,326.8,186q6.35,5.53,6.35,15.4t-6.45,15.36a23,23,0,0,1-15.36,5.45q-9.65,0-15.8-5.81t-6.14-15.08q0-9.45,6.26-15.15A22.4,22.4,0,0,1,311.33,180.51Zm0,34.26q8.75,0,8.75-13.67,0-13.07-8.75-13.07a7.51,7.51,0,0,0-6.55,3.45q-2.36,3.45-2.36,9.88Q302.42,214.77,311.33,214.77Z"/><path d="M353.52,181.36v5.7q5.38-6.54,12.61-6.55a13.77,13.77,0,0,1,10.08,4q4,4,4,11.45v25.53h-12.2V197q0-8-6-8-4.31,0-8.5,6.63v25.89h-12.2V181.36Z"/><path d="M429.88,181.36v8.46h-5.55a13.47,13.47,0,0,1,1.93,6.67,13,13,0,0,1-3.37,8.63q-3.37,4-10,4.7t-7.48,1.4a2,2,0,0,0-.88,1.72,2,2,0,0,0,1.15,1.72q1.15.66,9.06,1.36t11,4.29a11.61,11.61,0,0,1,3.1,7.71,11.24,11.24,0,0,1-5.28,10q-5.28,3.44-15.26,3.44-10.19,0-15.44-3.19t-5.26-8.46q0-7.31,10.35-10.2-4.68-1.44-4.68-5.23,0-4.42,7.07-6.08a13.42,13.42,0,0,1-7.8-4.25A11.68,11.68,0,0,1,389.5,196a14,14,0,0,1,4.44-10.2q4.44-4.42,12.9-4.42ZM408.93,234a12,12,0,0,0,6.33-1.49q2.42-1.49,2.42-3.57,0-4.42-9.49-4.42a14.69,14.69,0,0,0-6.78,1.3q-2.46,1.3-2.46,3.46Q399,234,408.93,234Zm-1-45.19a6.66,6.66,0,0,0-5,2.13,7.23,7.23,0,0,0-2,5.19,7,7,0,0,0,2.09,5.08,6.68,6.68,0,0,0,5,2.15,6.41,6.41,0,0,0,4.92-2.25,7.75,7.75,0,0,0,2-5.4,6.84,6.84,0,0,0-7-6.89Z"/><path d="M462.62,183.48v9q-7-4.42-12.94-4.42-4.4,0-4.4,3.1a2.17,2.17,0,0,0,.93,1.59q.93.79,7.09,3.32t8.71,5.86a11.69,11.69,0,0,1,2.55,7.28q0,6.25-4.11,9.66t-11.71,3.4a31.56,31.56,0,0,1-13.88-2.93v-8.88q7.48,3.4,12.53,3.4,5.92,0,5.92-3a3,3,0,0,0-1.1-2.16q-1.09-1-7.33-3.54t-8.54-5.55A11.14,11.14,0,0,1,438.44,184q4.42-3.45,11.65-3.45A26.24,26.24,0,0,1,462.62,183.48Z"/></g><g id="gclef"><path class="cls-1" d="M256.46,0c4.87,2,7.73,5.9,9.49,10.6,7.16,19.09,8.7,38.45,2.89,58.24a88.92,88.92,0,0,1-20.61,36.62.85.85,0,0,1-.16.16c-5.08,3-5.46,7.47-4.33,12.75,1.07,5,1.49,10.11,2.17,15,3.64.5,7.17.71,10.57,1.51,9.86,2.33,16.88,8.56,21.65,17.18,7.9,14.29,8.33,29.06,1.3,43.78a36.69,36.69,0,0,1-19.53,18.55c-3.09,1.28-3,1.3-2.54,4.57,1.66,11.09,3.32,22.14,3.54,33.43.29,14.86-8.26,24.14-20.49,28.66-13.75,5.09-31.33-.4-39.1-12.06-7.14-10.71-3.57-26.26,7.52-32.77,7.36-4.32,18-1.57,22.46,5.77s4.69,14.88-.24,22c-1.49,2.16-4.21,3.48-6.42,5.11a12.79,12.79,0,0,1-2.41,1A15.41,15.41,0,0,0,233.82,272c7.62-1.5,12.11-6.55,14.51-13.69,2.84-8.46,1.51-17,.33-25.49-.58-4.17-1.47-8.3-2.11-12.47-.22-1.46-.84-1.78-2.25-1.68-7.86.57-15.66.56-23.28-1.95a49,49,0,0,1-22.32-15.56A66.56,66.56,0,0,1,184.42,174a59.73,59.73,0,0,1,3.46-39.72c5.19-11.59,13-21.29,21.94-30.12,5.78-5.71,11.76-11.23,17.73-16.75a3.4,3.4,0,0,0,1.11-3.34c-.93-8.52-2.38-17.06-2.39-25.6,0-12.54,1.8-25,7.28-36.48,3.89-8.16,9.21-15.35,16.8-20.58.79-.54,1.65-1,2.49-1.45ZM239,163c-8.94,3.4-13.45,15.31-9,23.25,1.5,2.68,3.45,5.11,5.1,7.71,1.75,2.75,1,4.23-2.24,4.46-4.14.29-7.24-1.73-10.33-4.23-10.7-8.64-13.69-24.62-8.53-37.07a38.47,38.47,0,0,1,19.57-20.39A2.14,2.14,0,0,0,235,134c-.51-3.2-.85-6.42-1.27-9.63-.23-1.81-.48-3.62-.75-5.68a19.56,19.56,0,0,0-1.83,1.17c-7.9,6.57-15.34,13.58-21.35,22-5.59,7.81-9.72,16.24-11.16,25.85-1.08,7.21-.63,14.29,3.36,20.52,9.35,14.61,22.56,21.94,40.25,20.19,2.63-.26,2.68-.36,2.32-3.09-1.37-10.37-2.69-20.75-4-31.13C240.06,170.56,239.57,166.93,239,163Zm-1.5-84c1-.69,1.36-.91,1.7-1.19A65,65,0,0,0,258.2,52.1,33.73,33.73,0,0,0,261,35.56c-.23-2.35-1.06-4.49-3.52-5.33s-5.16-.66-7,1.57a37.63,37.63,0,0,0-4.79,6.49,78.3,78.3,0,0,0-8.46,29.77C236.85,71.51,237.38,75,237.55,79Zm12,82.86,5.27,40.06a7.07,7.07,0,0,0,3.1-2.71,64,64,0,0,0,4.26-9.65c1.51-5,2.36-10.09,1-15.35C261.71,168.12,255.66,162.42,249.57,161.89Z"/></g></g></g></svg>